<mxfile host="app.diagrams.net" modified="2023-11-04T18:48:18.300Z" agent="Mozilla/5.0 (Windows NT 10.0; Win64; x64) AppleWebKit/537.36 (KHTML, like Gecko) Chrome/119.0.0.0 Safari/537.36" etag="0gayITCwA8JKghM8e0zM" version="22.0.8" type="device">
  <diagram name="Page-1" id="GJRM-9AMGav8ayEESsOm">
    <mxGraphModel dx="2148" dy="534" grid="1" gridSize="10" guides="1" tooltips="1" connect="1" arrows="1" fold="1" page="1" pageScale="1" pageWidth="850" pageHeight="1100" math="0" shadow="0">
      <root>
        <mxCell id="0" />
        <mxCell id="1" parent="0" />
        <mxCell id="PqWHyrjfqzlu8IMc4YvD-12" value="&lt;font style=&quot;font-size: 24px;&quot;&gt;L (3)&lt;/font&gt;" style="rounded=0;whiteSpace=wrap;html=1;" parent="1" vertex="1">
          <mxGeometry x="710" y="380" width="120" height="60" as="geometry" />
        </mxCell>
        <mxCell id="PqWHyrjfqzlu8IMc4YvD-13" value="&lt;font style=&quot;font-size: 24px;&quot;&gt;I (9)&lt;/font&gt;" style="rounded=0;whiteSpace=wrap;html=1;" parent="1" vertex="1">
          <mxGeometry x="320" y="320" width="120" height="60" as="geometry" />
        </mxCell>
        <mxCell id="PqWHyrjfqzlu8IMc4YvD-14" value="&lt;font style=&quot;font-size: 24px;&quot;&gt;H (8)&lt;/font&gt;" style="rounded=0;whiteSpace=wrap;html=1;" parent="1" vertex="1">
          <mxGeometry x="120" y="320" width="120" height="60" as="geometry" />
        </mxCell>
        <mxCell id="PqWHyrjfqzlu8IMc4YvD-15" value="&lt;font style=&quot;font-size: 24px;&quot;&gt;G (7)&lt;/font&gt;" style="rounded=0;whiteSpace=wrap;html=1;" parent="1" vertex="1">
          <mxGeometry x="-70" y="320" width="120" height="60" as="geometry" />
        </mxCell>
        <mxCell id="PqWHyrjfqzlu8IMc4YvD-16" value="&lt;font style=&quot;font-size: 24px;&quot;&gt;F (3)&lt;/font&gt;" style="rounded=0;whiteSpace=wrap;html=1;" parent="1" vertex="1">
          <mxGeometry x="480" y="170" width="120" height="60" as="geometry" />
        </mxCell>
        <mxCell id="PqWHyrjfqzlu8IMc4YvD-17" value="&lt;font style=&quot;font-size: 24px;&quot;&gt;E (9)&lt;/font&gt;" style="rounded=0;whiteSpace=wrap;html=1;" parent="1" vertex="1">
          <mxGeometry x="620" y="50" width="120" height="60" as="geometry" />
        </mxCell>
        <mxCell id="PqWHyrjfqzlu8IMc4YvD-18" value="&lt;font style=&quot;font-size: 24px;&quot;&gt;D (8)&lt;/font&gt;" style="rounded=0;whiteSpace=wrap;html=1;" parent="1" vertex="1">
          <mxGeometry x="440" y="50" width="120" height="60" as="geometry" />
        </mxCell>
        <mxCell id="PqWHyrjfqzlu8IMc4YvD-19" value="&lt;font style=&quot;font-size: 24px;&quot;&gt;C (6)&lt;/font&gt;" style="rounded=0;whiteSpace=wrap;html=1;" parent="1" vertex="1">
          <mxGeometry x="280" y="50" width="120" height="60" as="geometry" />
        </mxCell>
        <mxCell id="PqWHyrjfqzlu8IMc4YvD-20" value="&lt;font style=&quot;font-size: 24px;&quot;&gt;B (5)&lt;/font&gt;" style="rounded=0;whiteSpace=wrap;html=1;" parent="1" vertex="1">
          <mxGeometry x="110" y="50" width="120" height="60" as="geometry" />
        </mxCell>
        <mxCell id="PqWHyrjfqzlu8IMc4YvD-21" value="&lt;span style=&quot;font-size: 24px;&quot;&gt;A (8)&lt;/span&gt;" style="rounded=0;whiteSpace=wrap;html=1;" parent="1" vertex="1">
          <mxGeometry x="-50" y="100" width="120" height="60" as="geometry" />
        </mxCell>
        <mxCell id="PqWHyrjfqzlu8IMc4YvD-22" value="&lt;font style=&quot;font-size: 24px;&quot;&gt;K (2)&lt;/font&gt;" style="rounded=0;whiteSpace=wrap;html=1;" parent="1" vertex="1">
          <mxGeometry x="670" y="200" width="120" height="60" as="geometry" />
        </mxCell>
        <mxCell id="PqWHyrjfqzlu8IMc4YvD-23" value="&lt;font style=&quot;font-size: 24px; font-weight: normal;&quot;&gt;J (5)&lt;/font&gt;" style="rounded=0;whiteSpace=wrap;html=1;fontStyle=1" parent="1" vertex="1">
          <mxGeometry x="510" y="310" width="120" height="60" as="geometry" />
        </mxCell>
        <mxCell id="PqWHyrjfqzlu8IMc4YvD-27" value="" style="endArrow=classic;html=1;rounded=0;exitX=1;exitY=0.5;exitDx=0;exitDy=0;entryX=0;entryY=0.5;entryDx=0;entryDy=0;" parent="1" source="PqWHyrjfqzlu8IMc4YvD-21" target="PqWHyrjfqzlu8IMc4YvD-20" edge="1">
          <mxGeometry width="50" height="50" relative="1" as="geometry">
            <mxPoint x="400" y="260" as="sourcePoint" />
            <mxPoint x="450" y="210" as="targetPoint" />
          </mxGeometry>
        </mxCell>
        <mxCell id="PqWHyrjfqzlu8IMc4YvD-28" value="" style="endArrow=classic;html=1;rounded=0;exitX=1;exitY=0.5;exitDx=0;exitDy=0;entryX=0;entryY=0.5;entryDx=0;entryDy=0;" parent="1" source="PqWHyrjfqzlu8IMc4YvD-20" target="PqWHyrjfqzlu8IMc4YvD-19" edge="1">
          <mxGeometry width="50" height="50" relative="1" as="geometry">
            <mxPoint x="400" y="260" as="sourcePoint" />
            <mxPoint x="450" y="210" as="targetPoint" />
          </mxGeometry>
        </mxCell>
        <mxCell id="PqWHyrjfqzlu8IMc4YvD-29" value="" style="endArrow=classic;html=1;rounded=0;exitX=1;exitY=0.5;exitDx=0;exitDy=0;entryX=0;entryY=0.5;entryDx=0;entryDy=0;" parent="1" source="PqWHyrjfqzlu8IMc4YvD-19" target="PqWHyrjfqzlu8IMc4YvD-18" edge="1">
          <mxGeometry width="50" height="50" relative="1" as="geometry">
            <mxPoint x="400" y="260" as="sourcePoint" />
            <mxPoint x="450" y="210" as="targetPoint" />
          </mxGeometry>
        </mxCell>
        <mxCell id="PqWHyrjfqzlu8IMc4YvD-30" value="" style="endArrow=classic;html=1;rounded=0;exitX=1;exitY=0.5;exitDx=0;exitDy=0;entryX=0;entryY=0.5;entryDx=0;entryDy=0;" parent="1" source="PqWHyrjfqzlu8IMc4YvD-16" target="PqWHyrjfqzlu8IMc4YvD-17" edge="1">
          <mxGeometry width="50" height="50" relative="1" as="geometry">
            <mxPoint x="460" y="110" as="sourcePoint" />
            <mxPoint x="500" y="100" as="targetPoint" />
          </mxGeometry>
        </mxCell>
        <mxCell id="PqWHyrjfqzlu8IMc4YvD-31" value="" style="endArrow=classic;html=1;rounded=0;exitX=1;exitY=0.5;exitDx=0;exitDy=0;entryX=0;entryY=0.5;entryDx=0;entryDy=0;" parent="1" source="PqWHyrjfqzlu8IMc4YvD-18" target="PqWHyrjfqzlu8IMc4YvD-17" edge="1">
          <mxGeometry width="50" height="50" relative="1" as="geometry">
            <mxPoint x="460" y="110" as="sourcePoint" />
            <mxPoint x="500" y="100" as="targetPoint" />
          </mxGeometry>
        </mxCell>
        <mxCell id="PqWHyrjfqzlu8IMc4YvD-32" value="" style="endArrow=classic;html=1;rounded=0;exitX=1;exitY=0.25;exitDx=0;exitDy=0;entryX=0;entryY=0.75;entryDx=0;entryDy=0;" parent="1" source="PqWHyrjfqzlu8IMc4YvD-14" target="PqWHyrjfqzlu8IMc4YvD-19" edge="1">
          <mxGeometry width="50" height="50" relative="1" as="geometry">
            <mxPoint x="310" y="170" as="sourcePoint" />
            <mxPoint x="340" y="110" as="targetPoint" />
          </mxGeometry>
        </mxCell>
        <mxCell id="PqWHyrjfqzlu8IMc4YvD-33" value="" style="endArrow=classic;html=1;rounded=0;exitX=1;exitY=0.5;exitDx=0;exitDy=0;entryX=0;entryY=0.5;entryDx=0;entryDy=0;" parent="1" source="PqWHyrjfqzlu8IMc4YvD-19" target="PqWHyrjfqzlu8IMc4YvD-16" edge="1">
          <mxGeometry width="50" height="50" relative="1" as="geometry">
            <mxPoint x="460" y="110" as="sourcePoint" />
            <mxPoint x="500" y="100" as="targetPoint" />
          </mxGeometry>
        </mxCell>
        <mxCell id="PqWHyrjfqzlu8IMc4YvD-34" value="" style="endArrow=classic;html=1;rounded=0;exitX=1;exitY=0.5;exitDx=0;exitDy=0;entryX=0;entryY=0.5;entryDx=0;entryDy=0;" parent="1" source="PqWHyrjfqzlu8IMc4YvD-13" target="PqWHyrjfqzlu8IMc4YvD-16" edge="1">
          <mxGeometry width="50" height="50" relative="1" as="geometry">
            <mxPoint x="460" y="110" as="sourcePoint" />
            <mxPoint x="510" y="190" as="targetPoint" />
          </mxGeometry>
        </mxCell>
        <mxCell id="PqWHyrjfqzlu8IMc4YvD-35" value="&lt;font style=&quot;font-size: 24px;&quot;&gt;Start&lt;/font&gt;" style="rounded=0;whiteSpace=wrap;html=1;" parent="1" vertex="1">
          <mxGeometry x="-200" y="200" width="120" height="60" as="geometry" />
        </mxCell>
        <mxCell id="PqWHyrjfqzlu8IMc4YvD-36" value="" style="endArrow=classic;html=1;rounded=0;exitX=1;exitY=0.25;exitDx=0;exitDy=0;entryX=0;entryY=0.5;entryDx=0;entryDy=0;" parent="1" source="PqWHyrjfqzlu8IMc4YvD-35" target="PqWHyrjfqzlu8IMc4YvD-21" edge="1">
          <mxGeometry width="50" height="50" relative="1" as="geometry">
            <mxPoint x="-10" y="280" as="sourcePoint" />
            <mxPoint y="190" as="targetPoint" />
          </mxGeometry>
        </mxCell>
        <mxCell id="PqWHyrjfqzlu8IMc4YvD-37" value="" style="endArrow=classic;html=1;rounded=0;exitX=1;exitY=0.5;exitDx=0;exitDy=0;entryX=0;entryY=0.5;entryDx=0;entryDy=0;" parent="1" source="PqWHyrjfqzlu8IMc4YvD-35" target="PqWHyrjfqzlu8IMc4YvD-15" edge="1">
          <mxGeometry width="50" height="50" relative="1" as="geometry">
            <mxPoint x="-10" y="290" as="sourcePoint" />
            <mxPoint y="200" as="targetPoint" />
          </mxGeometry>
        </mxCell>
        <mxCell id="PqWHyrjfqzlu8IMc4YvD-38" value="" style="endArrow=classic;html=1;rounded=0;exitX=1;exitY=0.5;exitDx=0;exitDy=0;entryX=0;entryY=0.5;entryDx=0;entryDy=0;" parent="1" source="PqWHyrjfqzlu8IMc4YvD-15" target="PqWHyrjfqzlu8IMc4YvD-14" edge="1">
          <mxGeometry width="50" height="50" relative="1" as="geometry">
            <mxPoint x="150" y="210" as="sourcePoint" />
            <mxPoint x="200" y="190" as="targetPoint" />
          </mxGeometry>
        </mxCell>
        <mxCell id="PqWHyrjfqzlu8IMc4YvD-39" value="" style="endArrow=classic;html=1;rounded=0;entryX=0;entryY=0.5;entryDx=0;entryDy=0;exitX=1;exitY=0.5;exitDx=0;exitDy=0;" parent="1" source="PqWHyrjfqzlu8IMc4YvD-14" target="PqWHyrjfqzlu8IMc4YvD-13" edge="1">
          <mxGeometry width="50" height="50" relative="1" as="geometry">
            <mxPoint x="320" y="290" as="sourcePoint" />
            <mxPoint x="350" y="145" as="targetPoint" />
          </mxGeometry>
        </mxCell>
        <mxCell id="PqWHyrjfqzlu8IMc4YvD-40" value="" style="endArrow=classic;html=1;rounded=0;exitX=1;exitY=0.5;exitDx=0;exitDy=0;entryX=0;entryY=0.75;entryDx=0;entryDy=0;" parent="1" source="PqWHyrjfqzlu8IMc4YvD-13" target="PqWHyrjfqzlu8IMc4YvD-23" edge="1">
          <mxGeometry width="50" height="50" relative="1" as="geometry">
            <mxPoint x="490" y="240" as="sourcePoint" />
            <mxPoint x="530" y="220" as="targetPoint" />
          </mxGeometry>
        </mxCell>
        <mxCell id="PqWHyrjfqzlu8IMc4YvD-41" value="" style="endArrow=classic;html=1;rounded=0;exitX=1;exitY=0.5;exitDx=0;exitDy=0;entryX=0;entryY=0.5;entryDx=0;entryDy=0;" parent="1" source="PqWHyrjfqzlu8IMc4YvD-23" target="PqWHyrjfqzlu8IMc4YvD-22" edge="1">
          <mxGeometry width="50" height="50" relative="1" as="geometry">
            <mxPoint x="640" y="200" as="sourcePoint" />
            <mxPoint x="670" y="120" as="targetPoint" />
          </mxGeometry>
        </mxCell>
        <mxCell id="PqWHyrjfqzlu8IMc4YvD-43" value="" style="endArrow=classic;html=1;rounded=0;exitX=1;exitY=0.5;exitDx=0;exitDy=0;entryX=0;entryY=0.5;entryDx=0;entryDy=0;" parent="1" source="PqWHyrjfqzlu8IMc4YvD-23" target="PqWHyrjfqzlu8IMc4YvD-12" edge="1">
          <mxGeometry width="50" height="50" relative="1" as="geometry">
            <mxPoint x="640" y="350" as="sourcePoint" />
            <mxPoint x="700" y="280" as="targetPoint" />
          </mxGeometry>
        </mxCell>
        <mxCell id="PqWHyrjfqzlu8IMc4YvD-44" value="&lt;font style=&quot;font-size: 24px;&quot;&gt;Finish&lt;/font&gt;" style="rounded=0;whiteSpace=wrap;html=1;" parent="1" vertex="1">
          <mxGeometry x="930" y="190" width="120" height="60" as="geometry" />
        </mxCell>
        <mxCell id="PqWHyrjfqzlu8IMc4YvD-45" value="" style="endArrow=classic;html=1;rounded=0;exitX=1;exitY=0.5;exitDx=0;exitDy=0;entryX=0;entryY=0.5;entryDx=0;entryDy=0;" parent="1" source="PqWHyrjfqzlu8IMc4YvD-17" target="PqWHyrjfqzlu8IMc4YvD-44" edge="1">
          <mxGeometry width="50" height="50" relative="1" as="geometry">
            <mxPoint x="800" y="150" as="sourcePoint" />
            <mxPoint x="870" y="100" as="targetPoint" />
          </mxGeometry>
        </mxCell>
        <mxCell id="PqWHyrjfqzlu8IMc4YvD-46" value="" style="endArrow=classic;html=1;rounded=0;exitX=1;exitY=0.5;exitDx=0;exitDy=0;entryX=0;entryY=0.5;entryDx=0;entryDy=0;" parent="1" source="PqWHyrjfqzlu8IMc4YvD-22" target="PqWHyrjfqzlu8IMc4YvD-44" edge="1">
          <mxGeometry width="50" height="50" relative="1" as="geometry">
            <mxPoint x="790" y="120" as="sourcePoint" />
            <mxPoint x="860" y="240" as="targetPoint" />
          </mxGeometry>
        </mxCell>
        <mxCell id="PqWHyrjfqzlu8IMc4YvD-47" value="" style="endArrow=classic;html=1;rounded=0;exitX=1;exitY=0.5;exitDx=0;exitDy=0;entryX=0;entryY=0.75;entryDx=0;entryDy=0;" parent="1" source="PqWHyrjfqzlu8IMc4YvD-12" target="PqWHyrjfqzlu8IMc4YvD-44" edge="1">
          <mxGeometry width="50" height="50" relative="1" as="geometry">
            <mxPoint x="820" y="280" as="sourcePoint" />
            <mxPoint x="868" y="249" as="targetPoint" />
          </mxGeometry>
        </mxCell>
        <mxCell id="PqWHyrjfqzlu8IMc4YvD-48" value="&lt;font style=&quot;font-size: 18px;&quot;&gt;0&lt;/font&gt;" style="text;html=1;strokeColor=none;fillColor=none;align=center;verticalAlign=middle;whiteSpace=wrap;rounded=0;" parent="1" vertex="1">
          <mxGeometry x="-170" y="170" width="60" height="30" as="geometry" />
        </mxCell>
        <mxCell id="PqWHyrjfqzlu8IMc4YvD-49" value="&lt;font style=&quot;font-size: 18px;&quot;&gt;0&lt;/font&gt;" style="text;html=1;strokeColor=none;fillColor=none;align=center;verticalAlign=middle;whiteSpace=wrap;rounded=0;" parent="1" vertex="1">
          <mxGeometry x="-90" y="280" width="60" height="30" as="geometry" />
        </mxCell>
        <mxCell id="PqWHyrjfqzlu8IMc4YvD-50" value="&lt;font style=&quot;font-size: 18px;&quot;&gt;0&lt;/font&gt;" style="text;html=1;strokeColor=none;fillColor=none;align=center;verticalAlign=middle;whiteSpace=wrap;rounded=0;" parent="1" vertex="1">
          <mxGeometry x="-80" y="70" width="60" height="30" as="geometry" />
        </mxCell>
        <mxCell id="PqWHyrjfqzlu8IMc4YvD-51" value="&lt;span style=&quot;font-size: 18px;&quot;&gt;8&lt;/span&gt;" style="text;html=1;strokeColor=none;fillColor=none;align=center;verticalAlign=middle;whiteSpace=wrap;rounded=0;" parent="1" vertex="1">
          <mxGeometry x="30" y="70" width="60" height="30" as="geometry" />
        </mxCell>
        <mxCell id="PqWHyrjfqzlu8IMc4YvD-52" value="&lt;span style=&quot;font-size: 18px;&quot;&gt;7&lt;/span&gt;" style="text;html=1;strokeColor=none;fillColor=none;align=center;verticalAlign=middle;whiteSpace=wrap;rounded=0;" parent="1" vertex="1">
          <mxGeometry x="-10" y="280" width="60" height="30" as="geometry" />
        </mxCell>
        <mxCell id="PqWHyrjfqzlu8IMc4YvD-53" value="&lt;span style=&quot;font-size: 18px;&quot;&gt;8&lt;/span&gt;" style="text;html=1;strokeColor=none;fillColor=none;align=center;verticalAlign=middle;whiteSpace=wrap;rounded=0;" parent="1" vertex="1">
          <mxGeometry x="90" y="20" width="60" height="30" as="geometry" />
        </mxCell>
        <mxCell id="PqWHyrjfqzlu8IMc4YvD-54" value="&lt;span style=&quot;font-size: 18px;&quot;&gt;7&lt;/span&gt;" style="text;html=1;strokeColor=none;fillColor=none;align=center;verticalAlign=middle;whiteSpace=wrap;rounded=0;" parent="1" vertex="1">
          <mxGeometry x="100" y="290" width="60" height="30" as="geometry" />
        </mxCell>
        <mxCell id="PqWHyrjfqzlu8IMc4YvD-55" value="&lt;span style=&quot;font-size: 18px;&quot;&gt;13&lt;/span&gt;" style="text;html=1;strokeColor=none;fillColor=none;align=center;verticalAlign=middle;whiteSpace=wrap;rounded=0;" parent="1" vertex="1">
          <mxGeometry x="190" y="20" width="60" height="30" as="geometry" />
        </mxCell>
        <mxCell id="PqWHyrjfqzlu8IMc4YvD-56" value="&lt;span style=&quot;font-size: 18px;&quot;&gt;15&lt;/span&gt;" style="text;html=1;strokeColor=none;fillColor=none;align=center;verticalAlign=middle;whiteSpace=wrap;rounded=0;" parent="1" vertex="1">
          <mxGeometry x="200" y="290" width="60" height="30" as="geometry" />
        </mxCell>
        <mxCell id="PqWHyrjfqzlu8IMc4YvD-57" value="&lt;span style=&quot;font-size: 18px;&quot;&gt;15&lt;/span&gt;" style="text;html=1;strokeColor=none;fillColor=none;align=center;verticalAlign=middle;whiteSpace=wrap;rounded=0;" parent="1" vertex="1">
          <mxGeometry x="290" y="290" width="60" height="30" as="geometry" />
        </mxCell>
        <mxCell id="PqWHyrjfqzlu8IMc4YvD-58" value="&lt;span style=&quot;font-size: 18px;&quot;&gt;15&lt;/span&gt;" style="text;html=1;strokeColor=none;fillColor=none;align=center;verticalAlign=middle;whiteSpace=wrap;rounded=0;" parent="1" vertex="1">
          <mxGeometry x="260" y="20" width="60" height="30" as="geometry" />
        </mxCell>
        <mxCell id="PqWHyrjfqzlu8IMc4YvD-59" value="&lt;span style=&quot;font-size: 18px;&quot;&gt;21&lt;/span&gt;" style="text;html=1;strokeColor=none;fillColor=none;align=center;verticalAlign=middle;whiteSpace=wrap;rounded=0;" parent="1" vertex="1">
          <mxGeometry x="350" y="20" width="60" height="30" as="geometry" />
        </mxCell>
        <mxCell id="PqWHyrjfqzlu8IMc4YvD-60" value="&lt;span style=&quot;font-size: 18px;&quot;&gt;24&lt;/span&gt;" style="text;html=1;strokeColor=none;fillColor=none;align=center;verticalAlign=middle;whiteSpace=wrap;rounded=0;" parent="1" vertex="1">
          <mxGeometry x="390" y="290" width="60" height="30" as="geometry" />
        </mxCell>
        <mxCell id="PqWHyrjfqzlu8IMc4YvD-61" value="&lt;span style=&quot;font-size: 18px;&quot;&gt;24&lt;/span&gt;" style="text;html=1;strokeColor=none;fillColor=none;align=center;verticalAlign=middle;whiteSpace=wrap;rounded=0;" parent="1" vertex="1">
          <mxGeometry x="460" y="140" width="60" height="30" as="geometry" />
        </mxCell>
        <mxCell id="PqWHyrjfqzlu8IMc4YvD-62" value="&lt;span style=&quot;font-size: 18px;&quot;&gt;24&lt;/span&gt;" style="text;html=1;strokeColor=none;fillColor=none;align=center;verticalAlign=middle;whiteSpace=wrap;rounded=0;" parent="1" vertex="1">
          <mxGeometry x="490" y="280" width="60" height="30" as="geometry" />
        </mxCell>
        <mxCell id="PqWHyrjfqzlu8IMc4YvD-63" value="&lt;span style=&quot;font-size: 18px;&quot;&gt;21&lt;/span&gt;" style="text;html=1;strokeColor=none;fillColor=none;align=center;verticalAlign=middle;whiteSpace=wrap;rounded=0;" parent="1" vertex="1">
          <mxGeometry x="420" y="20" width="60" height="30" as="geometry" />
        </mxCell>
        <mxCell id="PqWHyrjfqzlu8IMc4YvD-64" value="&lt;span style=&quot;font-size: 18px;&quot;&gt;29&lt;/span&gt;" style="text;html=1;strokeColor=none;fillColor=none;align=center;verticalAlign=middle;whiteSpace=wrap;rounded=0;" parent="1" vertex="1">
          <mxGeometry x="510" y="20" width="60" height="30" as="geometry" />
        </mxCell>
        <mxCell id="PqWHyrjfqzlu8IMc4YvD-65" value="&lt;span style=&quot;font-size: 18px;&quot;&gt;27&lt;/span&gt;" style="text;html=1;strokeColor=none;fillColor=none;align=center;verticalAlign=middle;whiteSpace=wrap;rounded=0;" parent="1" vertex="1">
          <mxGeometry x="550" y="140" width="60" height="30" as="geometry" />
        </mxCell>
        <mxCell id="PqWHyrjfqzlu8IMc4YvD-66" value="&lt;span style=&quot;font-size: 18px;&quot;&gt;29&lt;/span&gt;" style="text;html=1;strokeColor=none;fillColor=none;align=center;verticalAlign=middle;whiteSpace=wrap;rounded=0;" parent="1" vertex="1">
          <mxGeometry x="580" y="280" width="60" height="30" as="geometry" />
        </mxCell>
        <mxCell id="PqWHyrjfqzlu8IMc4YvD-67" value="&lt;span style=&quot;font-size: 18px;&quot;&gt;29&lt;/span&gt;" style="text;html=1;strokeColor=none;fillColor=none;align=center;verticalAlign=middle;whiteSpace=wrap;rounded=0;" parent="1" vertex="1">
          <mxGeometry x="590" y="20" width="60" height="30" as="geometry" />
        </mxCell>
        <mxCell id="PqWHyrjfqzlu8IMc4YvD-68" value="&lt;span style=&quot;font-size: 18px;&quot;&gt;29&lt;/span&gt;" style="text;html=1;strokeColor=none;fillColor=none;align=center;verticalAlign=middle;whiteSpace=wrap;rounded=0;" parent="1" vertex="1">
          <mxGeometry x="680" y="350" width="60" height="30" as="geometry" />
        </mxCell>
        <mxCell id="PqWHyrjfqzlu8IMc4YvD-69" value="&lt;span style=&quot;font-size: 18px;&quot;&gt;29&lt;/span&gt;" style="text;html=1;strokeColor=none;fillColor=none;align=center;verticalAlign=middle;whiteSpace=wrap;rounded=0;" parent="1" vertex="1">
          <mxGeometry x="640" y="170" width="60" height="30" as="geometry" />
        </mxCell>
        <mxCell id="PqWHyrjfqzlu8IMc4YvD-70" value="&lt;span style=&quot;font-size: 18px;&quot;&gt;38&lt;/span&gt;" style="text;html=1;strokeColor=none;fillColor=none;align=center;verticalAlign=middle;whiteSpace=wrap;rounded=0;" parent="1" vertex="1">
          <mxGeometry x="690" y="20" width="60" height="30" as="geometry" />
        </mxCell>
        <mxCell id="PqWHyrjfqzlu8IMc4YvD-71" value="&lt;span style=&quot;font-size: 18px;&quot;&gt;31&lt;/span&gt;" style="text;html=1;strokeColor=none;fillColor=none;align=center;verticalAlign=middle;whiteSpace=wrap;rounded=0;" parent="1" vertex="1">
          <mxGeometry x="740" y="170" width="60" height="30" as="geometry" />
        </mxCell>
        <mxCell id="PqWHyrjfqzlu8IMc4YvD-72" value="&lt;span style=&quot;font-size: 18px;&quot;&gt;32&lt;/span&gt;" style="text;html=1;strokeColor=none;fillColor=none;align=center;verticalAlign=middle;whiteSpace=wrap;rounded=0;" parent="1" vertex="1">
          <mxGeometry x="780" y="350" width="60" height="30" as="geometry" />
        </mxCell>
        <mxCell id="PqWHyrjfqzlu8IMc4YvD-73" value="&lt;span style=&quot;font-size: 18px;&quot;&gt;38&lt;/span&gt;" style="text;html=1;strokeColor=none;fillColor=none;align=center;verticalAlign=middle;whiteSpace=wrap;rounded=0;" parent="1" vertex="1">
          <mxGeometry x="950" y="160" width="60" height="30" as="geometry" />
        </mxCell>
        <mxCell id="PqWHyrjfqzlu8IMc4YvD-74" value="&lt;span style=&quot;font-size: 18px;&quot;&gt;38&lt;/span&gt;" style="text;html=1;strokeColor=none;fillColor=none;align=center;verticalAlign=middle;whiteSpace=wrap;rounded=0;" parent="1" vertex="1">
          <mxGeometry x="790" y="440" width="60" height="30" as="geometry" />
        </mxCell>
        <mxCell id="PqWHyrjfqzlu8IMc4YvD-75" value="&lt;span style=&quot;font-size: 18px;&quot;&gt;38&lt;/span&gt;" style="text;html=1;strokeColor=none;fillColor=none;align=center;verticalAlign=middle;whiteSpace=wrap;rounded=0;" parent="1" vertex="1">
          <mxGeometry x="750" y="260" width="60" height="30" as="geometry" />
        </mxCell>
        <mxCell id="PqWHyrjfqzlu8IMc4YvD-76" value="&lt;span style=&quot;font-size: 18px;&quot;&gt;38&lt;/span&gt;" style="text;html=1;strokeColor=none;fillColor=none;align=center;verticalAlign=middle;whiteSpace=wrap;rounded=0;" parent="1" vertex="1">
          <mxGeometry x="700" y="110" width="60" height="30" as="geometry" />
        </mxCell>
        <mxCell id="PqWHyrjfqzlu8IMc4YvD-77" value="&lt;span style=&quot;font-size: 18px;&quot;&gt;35&lt;/span&gt;" style="text;html=1;strokeColor=none;fillColor=none;align=center;verticalAlign=middle;whiteSpace=wrap;rounded=0;" parent="1" vertex="1">
          <mxGeometry x="700" y="440" width="60" height="30" as="geometry" />
        </mxCell>
        <mxCell id="PqWHyrjfqzlu8IMc4YvD-78" value="&lt;span style=&quot;font-size: 18px;&quot;&gt;36&lt;/span&gt;" style="text;html=1;strokeColor=none;fillColor=none;align=center;verticalAlign=middle;whiteSpace=wrap;rounded=0;" parent="1" vertex="1">
          <mxGeometry x="660" y="260" width="60" height="30" as="geometry" />
        </mxCell>
        <mxCell id="PqWHyrjfqzlu8IMc4YvD-79" value="&lt;span style=&quot;font-size: 18px;&quot;&gt;29&lt;/span&gt;" style="text;html=1;strokeColor=none;fillColor=none;align=center;verticalAlign=middle;whiteSpace=wrap;rounded=0;" parent="1" vertex="1">
          <mxGeometry x="600" y="110" width="60" height="30" as="geometry" />
        </mxCell>
        <mxCell id="PqWHyrjfqzlu8IMc4YvD-80" value="&lt;span style=&quot;font-size: 18px;&quot;&gt;35&lt;/span&gt;" style="text;html=1;strokeColor=none;fillColor=none;align=center;verticalAlign=middle;whiteSpace=wrap;rounded=0;" parent="1" vertex="1">
          <mxGeometry x="590" y="370" width="60" height="30" as="geometry" />
        </mxCell>
        <mxCell id="PqWHyrjfqzlu8IMc4YvD-81" value="&lt;span style=&quot;font-size: 18px;&quot;&gt;29&lt;/span&gt;" style="text;html=1;strokeColor=none;fillColor=none;align=center;verticalAlign=middle;whiteSpace=wrap;rounded=0;" parent="1" vertex="1">
          <mxGeometry x="550" y="230" width="60" height="30" as="geometry" />
        </mxCell>
        <mxCell id="PqWHyrjfqzlu8IMc4YvD-82" value="&lt;span style=&quot;font-size: 18px;&quot;&gt;29&lt;/span&gt;" style="text;html=1;strokeColor=none;fillColor=none;align=center;verticalAlign=middle;whiteSpace=wrap;rounded=0;" parent="1" vertex="1">
          <mxGeometry x="520" y="110" width="60" height="30" as="geometry" />
        </mxCell>
        <mxCell id="PqWHyrjfqzlu8IMc4YvD-83" value="&lt;span style=&quot;font-size: 18px;&quot;&gt;21&lt;/span&gt;" style="text;html=1;strokeColor=none;fillColor=none;align=center;verticalAlign=middle;whiteSpace=wrap;rounded=0;" parent="1" vertex="1">
          <mxGeometry x="440" y="110" width="60" height="30" as="geometry" />
        </mxCell>
        <mxCell id="PqWHyrjfqzlu8IMc4YvD-84" value="&lt;span style=&quot;font-size: 18px;&quot;&gt;26&lt;/span&gt;" style="text;html=1;strokeColor=none;fillColor=none;align=center;verticalAlign=middle;whiteSpace=wrap;rounded=0;" parent="1" vertex="1">
          <mxGeometry x="460" y="230" width="60" height="30" as="geometry" />
        </mxCell>
        <mxCell id="PqWHyrjfqzlu8IMc4YvD-89" value="&lt;span style=&quot;font-size: 18px;&quot;&gt;30&lt;/span&gt;" style="text;html=1;strokeColor=none;fillColor=none;align=center;verticalAlign=middle;whiteSpace=wrap;rounded=0;" parent="1" vertex="1">
          <mxGeometry x="500" y="370" width="60" height="30" as="geometry" />
        </mxCell>
        <mxCell id="PqWHyrjfqzlu8IMc4YvD-91" value="&lt;span style=&quot;font-size: 18px;&quot;&gt;26&lt;/span&gt;" style="text;html=1;strokeColor=none;fillColor=none;align=center;verticalAlign=middle;whiteSpace=wrap;rounded=0;" parent="1" vertex="1">
          <mxGeometry x="390" y="380" width="60" height="30" as="geometry" />
        </mxCell>
        <mxCell id="PqWHyrjfqzlu8IMc4YvD-92" value="&lt;span style=&quot;font-size: 18px;&quot;&gt;21&lt;/span&gt;" style="text;html=1;strokeColor=none;fillColor=none;align=center;verticalAlign=middle;whiteSpace=wrap;rounded=0;" parent="1" vertex="1">
          <mxGeometry x="350" y="110" width="60" height="30" as="geometry" />
        </mxCell>
        <mxCell id="PqWHyrjfqzlu8IMc4YvD-93" value="&lt;span style=&quot;font-size: 18px;&quot;&gt;15&lt;/span&gt;" style="text;html=1;strokeColor=none;fillColor=none;align=center;verticalAlign=middle;whiteSpace=wrap;rounded=0;" parent="1" vertex="1">
          <mxGeometry x="270" y="110" width="60" height="30" as="geometry" />
        </mxCell>
        <mxCell id="PqWHyrjfqzlu8IMc4YvD-94" value="&lt;span style=&quot;font-size: 18px;&quot;&gt;17&lt;/span&gt;" style="text;html=1;strokeColor=none;fillColor=none;align=center;verticalAlign=middle;whiteSpace=wrap;rounded=0;" parent="1" vertex="1">
          <mxGeometry x="300" y="380" width="60" height="30" as="geometry" />
        </mxCell>
        <mxCell id="PqWHyrjfqzlu8IMc4YvD-95" value="&lt;span style=&quot;font-size: 18px;&quot;&gt;15&lt;/span&gt;" style="text;html=1;strokeColor=none;fillColor=none;align=center;verticalAlign=middle;whiteSpace=wrap;rounded=0;" parent="1" vertex="1">
          <mxGeometry x="180" y="370" width="60" height="30" as="geometry" />
        </mxCell>
        <mxCell id="PqWHyrjfqzlu8IMc4YvD-96" value="&lt;span style=&quot;font-size: 18px;&quot;&gt;15&lt;/span&gt;" style="text;html=1;strokeColor=none;fillColor=none;align=center;verticalAlign=middle;whiteSpace=wrap;rounded=0;" parent="1" vertex="1">
          <mxGeometry x="180" y="110" width="60" height="30" as="geometry" />
        </mxCell>
        <mxCell id="PqWHyrjfqzlu8IMc4YvD-97" value="&lt;span style=&quot;font-size: 18px;&quot;&gt;10&lt;/span&gt;" style="text;html=1;strokeColor=none;fillColor=none;align=center;verticalAlign=middle;whiteSpace=wrap;rounded=0;" parent="1" vertex="1">
          <mxGeometry x="90" y="110" width="60" height="30" as="geometry" />
        </mxCell>
        <mxCell id="PqWHyrjfqzlu8IMc4YvD-98" value="&lt;span style=&quot;font-size: 18px;&quot;&gt;7&lt;/span&gt;" style="text;html=1;strokeColor=none;fillColor=none;align=center;verticalAlign=middle;whiteSpace=wrap;rounded=0;" parent="1" vertex="1">
          <mxGeometry y="380" width="60" height="30" as="geometry" />
        </mxCell>
        <mxCell id="PqWHyrjfqzlu8IMc4YvD-99" value="&lt;span style=&quot;font-size: 18px;&quot;&gt;0&lt;/span&gt;" style="text;html=1;strokeColor=none;fillColor=none;align=center;verticalAlign=middle;whiteSpace=wrap;rounded=0;" parent="1" vertex="1">
          <mxGeometry x="-90" y="380" width="60" height="30" as="geometry" />
        </mxCell>
        <mxCell id="PqWHyrjfqzlu8IMc4YvD-100" value="&lt;span style=&quot;font-size: 18px;&quot;&gt;7&lt;/span&gt;" style="text;html=1;strokeColor=none;fillColor=none;align=center;verticalAlign=middle;whiteSpace=wrap;rounded=0;" parent="1" vertex="1">
          <mxGeometry x="80" y="370" width="60" height="30" as="geometry" />
        </mxCell>
        <mxCell id="PqWHyrjfqzlu8IMc4YvD-101" value="&lt;span style=&quot;font-size: 18px;&quot;&gt;10&lt;/span&gt;" style="text;html=1;strokeColor=none;fillColor=none;align=center;verticalAlign=middle;whiteSpace=wrap;rounded=0;" parent="1" vertex="1">
          <mxGeometry x="20" y="160" width="60" height="30" as="geometry" />
        </mxCell>
        <mxCell id="PqWHyrjfqzlu8IMc4YvD-102" value="&lt;span style=&quot;font-size: 18px;&quot;&gt;2&lt;/span&gt;" style="text;html=1;strokeColor=none;fillColor=none;align=center;verticalAlign=middle;whiteSpace=wrap;rounded=0;" parent="1" vertex="1">
          <mxGeometry x="-70" y="160" width="60" height="30" as="geometry" />
        </mxCell>
        <mxCell id="PqWHyrjfqzlu8IMc4YvD-103" value="&lt;h1&gt;Critical Path&lt;/h1&gt;&lt;div&gt;&lt;b&gt;Start -&amp;gt; G -&amp;gt; H-&amp;gt; C-&amp;gt; D -&amp;gt; E -&amp;gt; Finish&lt;/b&gt;&lt;/div&gt;" style="text;html=1;strokeColor=none;fillColor=none;spacing=5;spacingTop=-20;whiteSpace=wrap;overflow=hidden;rounded=0;" parent="1" vertex="1">
          <mxGeometry x="-60" y="425" width="310" height="80" as="geometry" />
        </mxCell>
      </root>
    </mxGraphModel>
  </diagram>
</mxfile>
